<svg width="36" height="25" viewBox="0 0 36 25" fill="none" xmlns="http://www.w3.org/2000/svg">
<path d="M34.1841 12.3845L29.1739 5.90484C28.8106 5.43504 28.2284 5.15681 27.6085 5.15681H23.5588C23.0253 5.15681 22.5928 5.5613 22.5928 6.06027V12.3845M34.1841 12.3845H22.5928M34.1841 12.3845V19.6122H31.825C31.7869 19.4856 31.7408 19.3606 31.6864 19.2379M22.5928 12.3845V19.6122M22.5928 19.6122H24.952C24.99 19.4856 25.0362 19.3606 25.0905 19.2379M22.5928 19.6122H11.0572C11.0191 19.4856 10.973 19.3606 10.9186 19.2379M22.5928 19.6122V3.34989C22.5928 2.35195 21.7279 1.54297 20.6609 1.54297H3.27393C2.20698 1.54297 1.34204 2.35196 1.34204 3.34989V19.6122H4.18418C4.22221 19.4856 4.2684 19.3606 4.32274 19.2379M25.0905 19.2379C25.4528 18.4199 26.1478 17.7699 27.0224 17.431C27.8971 17.0922 28.8799 17.0922 29.7545 17.431C30.6292 17.7699 31.3241 18.4199 31.6864 19.2379M25.0905 19.2379C24.7282 20.056 24.7282 20.9752 25.0905 21.7933C25.4528 22.6114 26.1478 23.2614 27.0224 23.6002C27.8971 23.9391 28.8799 23.9391 29.7545 23.6002C30.6292 23.2614 31.3241 22.6114 31.6864 21.7933C32.0487 20.9752 32.0487 20.056 31.6864 19.2379M4.32274 19.2379C4.68504 18.4199 5.37996 17.7699 6.25463 17.431C7.1293 17.0922 8.11206 17.0922 8.98673 17.431C9.8614 17.7699 10.5563 18.4199 10.9186 19.2379M4.32274 19.2379C3.96044 20.056 3.96044 20.9752 4.32274 21.7933C4.68504 22.6114 5.37996 23.2614 6.25463 23.6002C7.1293 23.9391 8.11206 23.9391 8.98673 23.6002C9.8614 23.2614 10.5563 22.6114 10.9186 21.7933C11.2809 20.9752 11.2809 20.056 10.9186 19.2379" stroke="#107881" stroke-width="2" stroke-linecap="round" stroke-linejoin="round"/>
</svg>
